<?xml version="1.0" encoding="UTF-8"?><svg id="uuid-2cc3330d-4aa3-4350-8bae-0ec26c4dc999" xmlns="http://www.w3.org/2000/svg" xmlns:xlink="http://www.w3.org/1999/xlink" viewBox="0 0 106.27 105.5"><defs><linearGradient id="uuid-7089afa6-63ce-48aa-be1c-c47657256be0" x1="64.77" y1="117.04" x2="156.43" y2="30" gradientUnits="userSpaceOnUse"><stop offset="0" stop-color="#00a5f7"/><stop offset=".9" stop-color="#00d3ae"/></linearGradient><linearGradient id="uuid-f74f4ae8-228e-41f6-9d05-0b9840b230ea" x1="-10.13" y1="38.16" x2="81.53" y2="-48.88" xlink:href="#uuid-7089afa6-63ce-48aa-be1c-c47657256be0"/><linearGradient id="uuid-bf14fbef-6640-4006-b25e-023a8779c314" x1="26.19" y1="76.41" x2="117.85" y2="-10.63" xlink:href="#uuid-7089afa6-63ce-48aa-be1c-c47657256be0"/><linearGradient id="uuid-62bb4f59-bf67-4b03-a588-881c59a6fa5b" x1="27.63" y1="77.93" x2="119.29" y2="-9.1" xlink:href="#uuid-7089afa6-63ce-48aa-be1c-c47657256be0"/><linearGradient id="uuid-d700731b-4579-46d6-a56c-e1349bf7c10a" x1="45.94" y1="97.21" x2="137.6" y2="10.17" xlink:href="#uuid-7089afa6-63ce-48aa-be1c-c47657256be0"/><linearGradient id="uuid-388e576b-2720-4e5e-9a91-5fc004ae4b22" x1="8.36" y1="57.63" x2="100.02" y2="-29.41" xlink:href="#uuid-7089afa6-63ce-48aa-be1c-c47657256be0"/></defs><g id="uuid-c338adad-d238-4b0e-bb54-1f98be1f5fac"><path d="M91.99,105.5c-3.82,0-7.41-1.49-10.11-4.19-2.7-2.7-4.19-6.29-4.19-10.11s1.49-7.41,4.18-10.1c2.7-2.7,6.3-4.19,10.12-4.19s7.41,1.48,10.11,4.18c5.58,5.58,5.58,14.65,0,20.23-2.7,2.7-6.29,4.18-10.1,4.18Z" style="fill:url(#uuid-7089afa6-63ce-48aa-be1c-c47657256be0); stroke-width:0px;"/><path d="M14.31,29.26c-3.82,0-7.41-1.49-10.12-4.19C1.49,22.37,0,18.78,0,14.96S1.48,7.55,4.18,4.85C6.89,2.15,10.48.66,14.3.66s7.41,1.49,10.1,4.18c2.7,2.7,4.19,6.3,4.19,10.11s-1.49,7.41-4.19,10.11c-2.7,2.7-6.29,4.18-10.1,4.18Z" style="fill:url(#uuid-f74f4ae8-228e-41f6-9d05-0b9840b230ea); stroke-width:0px;"/><path d="M91.35,28.84c-3.82,0-7.41-1.49-10.11-4.19-5.57-5.58-5.58-14.65,0-20.22,2.7-2.7,6.29-4.19,10.12-4.19s7.41,1.49,10.11,4.19c5.57,5.57,5.57,14.65,0,20.23-2.7,2.69-6.29,4.18-10.11,4.18Z" style="fill:url(#uuid-bf14fbef-6640-4006-b25e-023a8779c314); stroke-width:0px;"/><path d="M14.68,105.5c-3.82,0-7.41-1.49-10.12-4.19-2.7-2.7-4.19-6.29-4.18-10.11,0-3.82,1.49-7.41,4.19-10.11.57-.57,1.2-1.09,2.01-1.64.24-.17.47-.31.7-.45.53-.3,1.06-.58,1.55-.81.27-.12.54-.24.83-.35.51-.19,1.09-.36,1.74-.52.13-.04.25-.07.36-.1.07-.02.14-.04.22-.06l3.18-.22c.4.02.84.07,1.3.13l.18.02c.11.01.25.02.4.03h.13s.15.04.15.04h.13c.23,0,.47.01.7.01,5.49,0,10.9-2.34,14.86-6.41,3.94-4.05,6.11-9.51,5.96-14.97v-.16s-.03-.17-.03-.17c-.03-.15-.04-.31-.05-.46-.01-.18-.03-.37-.05-.55l-.04-.32c-.03-.27-.06-.54-.08-.82l.24-3.19c.02-.08.04-.15.07-.23l.06-.2c.15-.6.3-1.21.53-1.8.12-.33.23-.58.35-.83.25-.56.52-1.07.83-1.59.13-.23.27-.45.42-.68.58-.84,1.1-1.49,1.65-2.03,2.7-2.7,6.29-4.19,10.12-4.19s7.41,1.48,10.12,4.18c5.57,5.58,5.56,14.65-.01,20.23-.56.57-1.2,1.08-2.02,1.64-.24.16-.46.3-.69.43-.51.31-1.03.58-1.55.82-.28.13-.56.25-.83.35-.55.2-1.13.38-1.74.51l-.34.1c-.08.02-.15.05-.23.07l-3.21.23c-.38-.02-.77-.07-1.19-.12l-.29-.04c-.1-.02-.25-.03-.4-.04h-.11s-.16-.04-.16-.04h-.13c-.23,0-.47-.01-.7-.01-5.49,0-10.9,2.33-14.86,6.41-3.94,4.06-6.11,9.51-5.96,14.97v.16s.03.16.03.16c.03.16.04.31.05.46.01.18.03.37.05.55,0,.11.03.31.05.5.02.22.05.43.05.65v.08l-.23,3.06c-.01.06-.12.42-.15.53-.15.66-.33,1.25-.52,1.77-.11.29-.21.55-.34.81-.25.54-.52,1.06-.82,1.59-.13.22-.29.47-.46.72-.53.77-1.06,1.42-1.62,1.99-2.69,2.7-6.28,4.19-10.1,4.19h0Z" style="fill:url(#uuid-62bb4f59-bf67-4b03-a588-881c59a6fa5b); stroke-width:0px;"/><path d="M53.29,105.5c-3.82,0-7.42-1.49-10.12-4.19-2.7-2.7-4.19-6.29-4.19-10.11,0-3.82,1.48-7.41,4.18-10.1.55-.55,1.18-1.06,2.03-1.65.21-.14.44-.28.68-.42.53-.31,1.03-.58,1.56-.82.28-.13.55-.25.83-.36.53-.2,1.11-.37,1.72-.5,0,0,.5-.15.57-.16l3.23-.24c.38.02.79.07,1.22.13l.24.03c.16.02.29.03.43.03.05,0,.11,0,.16,0h.1s.14.03.14.03c.24,0,.48.01.71.01,5.48,0,10.88-2.33,14.83-6.4,3.94-4.05,6.11-9.51,5.96-14.97l-.02-.67-.06-.07s0-.05,0-.07c0-.16-.02-.31-.03-.47l-.05-.46c-.03-.25-.06-.5-.07-.75l.22-3.09c.02-.08.13-.46.15-.57.18-.74.34-1.28.52-1.76.1-.29.23-.55.35-.83.23-.5.5-1.01.82-1.56l.06-.1c.11-.19.22-.37.35-.56.59-.85,1.11-1.49,1.65-2.04,2.7-2.7,6.3-4.19,10.12-4.19s7.41,1.49,10.11,4.18c5.57,5.57,5.57,14.65,0,20.23-.54.54-1.19,1.06-2.03,1.64-.16.11-.32.2-.47.3l-.25.16c-.48.28-1,.56-1.51.79-.29.13-.56.25-.84.36-.5.19-1.05.35-1.75.51-.14.03-.25.07-.36.1-.08.02-.15.04-.23.06l-3.18.22c-.47-.02-.97-.09-1.46-.15-.17-.02-.29-.03-.42-.03-.05,0-.1,0-.15,0l-.27-.03c-.24,0-.47-.01-.71-.01-5.48,0-10.89,2.33-14.84,6.4-3.94,4.06-6.11,9.51-5.95,14.97v.16s.04.16.04.16c.03.16.04.33.05.49.01.17.02.33.04.49.01.14.03.31.05.48.03.24.06.49.06.73l-.23,3.14c-.02.07-.14.49-.14.49-.15.66-.32,1.25-.52,1.79-.1.26-.21.51-.32.76l-.04.09c-.24.51-.5,1.02-.8,1.51-.15.24-.29.48-.44.71-.56.81-1.09,1.46-1.65,2.03-2.69,2.69-6.27,4.17-10.09,4.17h0Z" style="fill:url(#uuid-d700731b-4579-46d6-a56c-e1349bf7c10a); stroke-width:0px;"/><path d="M14.68,66.9c-3.82,0-7.41-1.49-10.11-4.18-2.7-2.7-4.19-6.3-4.19-10.12,0-3.82,1.48-7.4,4.18-10.1.55-.55,1.2-1.08,2.03-1.65.22-.15.46-.29.7-.44.49-.29,1-.56,1.54-.81.28-.13.55-.25.84-.36.53-.19,1.11-.36,1.71-.5l.36-.1c.07-.02.13-.04.2-.06l3.24-.23c.42.02.88.08,1.35.14h.1c.17.03.29.04.43.04.05,0,.09,0,.14,0l.14.02h.13c.24.01.48.02.71.02,5.47,0,10.88-2.33,14.83-6.4,3.94-4.06,6.11-9.51,5.95-14.97v-.16s-.04-.16-.04-.16c-.03-.17-.04-.35-.05-.53,0-.14-.02-.29-.03-.44l-.05-.44c-.03-.26-.07-.53-.07-.79l.21-3,.02-.07v-.06c.02-.07.13-.47.13-.47.18-.77.34-1.32.53-1.81.1-.27.23-.54.36-.82.23-.51.51-1.03.82-1.56l.05-.08c.12-.21.25-.41.39-.62.57-.82,1.09-1.46,1.63-2.01,2.7-2.7,6.3-4.19,10.12-4.19s7.41,1.49,10.11,4.19c5.57,5.58,5.57,14.65,0,20.22-.55.55-1.21,1.09-2.01,1.63-.22.16-.41.27-.6.38l-.11.06c-.52.31-1.04.59-1.53.81-.29.13-.56.25-.83.36-.54.2-1.11.37-1.75.52-.13.03-.26.07-.38.1-.07.02-.15.04-.22.06l-3.17.22c-.4-.02-.83-.07-1.28-.13l-.19-.02c-.15-.02-.28-.02-.41-.03-.05,0-.11,0-.16-.01h-.11s-.14-.02-.14-.02c-.24,0-.47-.01-.71-.01-5.48,0-10.88,2.33-14.84,6.4-3.94,4.06-6.11,9.52-5.96,14.98v.16s.03.16.03.16c.03.16.04.33.05.49.01.17.02.33.04.5.01.13.03.3.05.47.03.24.06.47.06.71l-.23,3.12c-.02.08-.04.16-.07.25l-.08.28c-.16.7-.33,1.28-.52,1.79-.1.27-.23.55-.36.84-.23.51-.5,1.02-.81,1.54-.15.25-.29.48-.43.7-.59.85-1.09,1.47-1.64,2.02-2.7,2.7-6.29,4.18-10.1,4.18h0Z" style="fill:url(#uuid-388e576b-2720-4e5e-9a91-5fc004ae4b22); stroke-width:0px;"/></g></svg>