<?xml version="1.0" encoding="utf-8"?>
<!-- Generator: Adobe Illustrator 28.1.0, SVG Export Plug-In . SVG Version: 6.00 Build 0)  -->
<svg version="1.1" id="Layer_1" xmlns="http://www.w3.org/2000/svg" xmlns:xlink="http://www.w3.org/1999/xlink" x="0px" y="0px"
	 viewBox="0 0 32 31.6" style="enable-background:new 0 0 32 31.6;" xml:space="preserve">
<style type="text/css">
	.st0{fill:url(#SVGID_1_);}
	.st1{fill:url(#SVGID_00000152254400918189111200000012155198798137443515_);}
	.st2{fill:url(#SVGID_00000135664829484478719230000011540461810682421427_);}
	.st3{fill:url(#SVGID_00000114062973903427224320000000845019596740055998_);}
	.st4{fill:url(#SVGID_00000128475876790640166990000008141522568340610712_);}
	.st5{fill:url(#SVGID_00000144336168198835511830000003978119266968572861_);}
</style>
<g id="uuid-c338adad-d238-4b0e-bb54-1f98be1f5fac">
	
		<linearGradient id="SVGID_1_" gradientUnits="userSpaceOnUse" x1="19.5653" y1="-1.0671" x2="47.0242" y2="25.0077" gradientTransform="matrix(1 0 0 -1 0 34)">
		<stop  offset="0" style="stop-color:#00A5F7"/>
		<stop  offset="0.9" style="stop-color:#00D3AE"/>
	</linearGradient>
	<path class="st0" d="M27.7,31.6c-1.1,0-2.2-0.4-3-1.3c-0.8-0.8-1.3-1.9-1.3-3s0.4-2.2,1.3-3c0.8-0.8,1.9-1.3,3-1.3
		c1.1,0,2.2,0.4,3,1.3c1.7,1.7,1.7,4.4,0,6.1C29.9,31.2,28.9,31.6,27.7,31.6L27.7,31.6z"/>
	
		<linearGradient id="SVGID_00000119118850583602164770000001799201032922396308_" gradientUnits="userSpaceOnUse" x1="-2.877" y1="22.5677" x2="24.5819" y2="48.6426" gradientTransform="matrix(1 0 0 -1 0 34)">
		<stop  offset="0" style="stop-color:#00A5F7"/>
		<stop  offset="0.9" style="stop-color:#00D3AE"/>
	</linearGradient>
	<path style="fill:url(#SVGID_00000119118850583602164770000001799201032922396308_);" d="M4.4,8.8c-1.1,0-2.2-0.4-3-1.3
		c-0.8-0.8-1.3-1.9-1.3-3s0.4-2.2,1.3-3c0.8-0.8,1.9-1.3,3-1.3s2.2,0.4,3,1.3c0.8,0.8,1.3,1.9,1.3,3s-0.4,2.2-1.3,3
		C6.7,8.3,5.6,8.8,4.4,8.8L4.4,8.8z"/>
	
		<linearGradient id="SVGID_00000165203377537980285980000001417343320630950324_" gradientUnits="userSpaceOnUse" x1="8.0081" y1="11.1043" x2="35.4669" y2="37.1791" gradientTransform="matrix(1 0 0 -1 0 34)">
		<stop  offset="0" style="stop-color:#00A5F7"/>
		<stop  offset="0.9" style="stop-color:#00D3AE"/>
	</linearGradient>
	<path style="fill:url(#SVGID_00000165203377537980285980000001417343320630950324_);" d="M27.5,8.6c-1.1,0-2.2-0.4-3-1.3
		c-1.7-1.7-1.7-4.4,0-6.1c0.8-0.8,1.9-1.3,3-1.3c1.1,0,2.2,0.4,3,1.3c1.7,1.7,1.7,4.4,0,6.1C29.7,8.2,28.7,8.6,27.5,8.6L27.5,8.6z"
		/>
	
		<linearGradient id="SVGID_00000108988744949315135020000015443606962843508654_" gradientUnits="userSpaceOnUse" x1="8.4338" y1="10.6548" x2="35.8927" y2="36.7267" gradientTransform="matrix(1 0 0 -1 0 34)">
		<stop  offset="0" style="stop-color:#00A5F7"/>
		<stop  offset="0.9" style="stop-color:#00D3AE"/>
	</linearGradient>
	<path style="fill:url(#SVGID_00000108988744949315135020000015443606962843508654_);" d="M4.6,31.6c-1.1,0-2.2-0.4-3-1.3
		c-0.8-0.8-1.3-1.9-1.3-3c0-1.1,0.4-2.2,1.3-3c0.2-0.2,0.4-0.3,0.6-0.5c0.1-0.1,0.1-0.1,0.2-0.1c0.2-0.1,0.3-0.2,0.5-0.2
		c0.1,0,0.2-0.1,0.2-0.1c0.2-0.1,0.3-0.1,0.5-0.2c0,0,0.1,0,0.1,0c0,0,0,0,0.1,0l1-0.1c0.1,0,0.3,0,0.4,0l0.1,0c0,0,0.1,0,0.1,0h0
		l0,0h0c0.1,0,0.1,0,0.2,0c1.6,0,3.3-0.7,4.5-1.9c1.2-1.2,1.8-2.8,1.8-4.5v0l0-0.1c0,0,0-0.1,0-0.1c0-0.1,0-0.1,0-0.2l0-0.1
		c0-0.1,0-0.2,0-0.2l0.1-1c0,0,0,0,0-0.1l0-0.1c0-0.2,0.1-0.4,0.2-0.5c0-0.1,0.1-0.2,0.1-0.2c0.1-0.2,0.2-0.3,0.2-0.5
		c0-0.1,0.1-0.1,0.1-0.2c0.2-0.3,0.3-0.4,0.5-0.6c0.8-0.8,1.9-1.3,3-1.3c1.1,0,2.2,0.4,3,1.3c1.7,1.7,1.7,4.4,0,6.1
		c-0.2,0.2-0.4,0.3-0.6,0.5c-0.1,0-0.1,0.1-0.2,0.1c-0.2,0.1-0.3,0.2-0.5,0.2c-0.1,0-0.2,0.1-0.2,0.1C17.4,19.9,17.2,20,17,20
		l-0.1,0c0,0,0,0-0.1,0l-1,0.1c-0.1,0-0.2,0-0.4,0l-0.1,0c0,0-0.1,0-0.1,0h0l0,0h0c-0.1,0-0.1,0-0.2,0c-1.6,0-3.3,0.7-4.5,1.9
		c-1.2,1.2-1.8,2.8-1.8,4.5v0l0,0c0,0,0,0.1,0,0.1c0,0.1,0,0.1,0,0.2c0,0,0,0.1,0,0.1c0,0.1,0,0.1,0,0.2v0l-0.1,0.9c0,0,0,0.1,0,0.2
		c0,0.2-0.1,0.4-0.2,0.5c0,0.1-0.1,0.2-0.1,0.2c-0.1,0.2-0.2,0.3-0.2,0.5c0,0.1-0.1,0.1-0.1,0.2c-0.2,0.2-0.3,0.4-0.5,0.6
		C6.8,31.2,5.7,31.6,4.6,31.6L4.6,31.6L4.6,31.6z"/>
	
		<linearGradient id="SVGID_00000023271597460511268060000007830493707603246501_" gradientUnits="userSpaceOnUse" x1="13.924" y1="4.8739" x2="41.3828" y2="30.9487" gradientTransform="matrix(1 0 0 -1 0 34)">
		<stop  offset="0" style="stop-color:#00A5F7"/>
		<stop  offset="0.9" style="stop-color:#00D3AE"/>
	</linearGradient>
	<path style="fill:url(#SVGID_00000023271597460511268060000007830493707603246501_);" d="M16.1,31.6c-1.1,0-2.2-0.4-3-1.3
		c-0.8-0.8-1.3-1.9-1.3-3s0.4-2.2,1.3-3c0.2-0.2,0.4-0.3,0.6-0.5c0.1,0,0.1-0.1,0.2-0.1c0.2-0.1,0.3-0.2,0.5-0.2
		c0.1,0,0.2-0.1,0.2-0.1c0.2-0.1,0.3-0.1,0.5-0.1c0,0,0.1,0,0.2,0l1-0.1c0.1,0,0.2,0,0.4,0l0.1,0c0,0,0.1,0,0.1,0c0,0,0,0,0,0h0l0,0
		c0.1,0,0.1,0,0.2,0c1.6,0,3.3-0.7,4.4-1.9c1.2-1.2,1.8-2.8,1.8-4.5l0-0.2l0,0c0,0,0,0,0,0c0,0,0-0.1,0-0.1l0-0.1c0-0.1,0-0.1,0-0.2
		l0.1-0.9c0,0,0-0.1,0-0.2c0.1-0.2,0.1-0.4,0.2-0.5c0-0.1,0.1-0.2,0.1-0.2c0.1-0.1,0.1-0.3,0.2-0.5l0,0c0-0.1,0.1-0.1,0.1-0.2
		c0.2-0.3,0.3-0.4,0.5-0.6c0.8-0.8,1.9-1.3,3-1.3c1.1,0,2.2,0.4,3,1.3c1.7,1.7,1.7,4.4,0,6.1c-0.2,0.2-0.4,0.3-0.6,0.5
		c0,0-0.1,0.1-0.1,0.1l-0.1,0c-0.1,0.1-0.3,0.2-0.5,0.2c-0.1,0-0.2,0.1-0.3,0.1c-0.1,0.1-0.3,0.1-0.5,0.2c0,0-0.1,0-0.1,0
		c0,0,0,0-0.1,0l-1,0.1c-0.1,0-0.3,0-0.4,0c-0.1,0-0.1,0-0.1,0c0,0,0,0,0,0l-0.1,0c-0.1,0-0.1,0-0.2,0c-1.6,0-3.3,0.7-4.4,1.9
		c-1.2,1.2-1.8,2.8-1.8,4.5v0l0,0c0,0,0,0.1,0,0.1c0,0.1,0,0.1,0,0.1c0,0,0,0.1,0,0.1c0,0.1,0,0.1,0,0.2l-0.1,0.9c0,0,0,0.1,0,0.1
		c0,0.2-0.1,0.4-0.2,0.5c0,0.1-0.1,0.2-0.1,0.2l0,0c-0.1,0.2-0.1,0.3-0.2,0.5c0,0.1-0.1,0.1-0.1,0.2c-0.2,0.2-0.3,0.4-0.5,0.6
		C18.3,31.2,17.3,31.6,16.1,31.6L16.1,31.6L16.1,31.6z"/>
	
		<linearGradient id="SVGID_00000063611033939616170330000007659400891089555603_" gradientUnits="userSpaceOnUse" x1="2.6647" y1="16.7324" x2="30.1235" y2="42.8072" gradientTransform="matrix(1 0 0 -1 0 34)">
		<stop  offset="0" style="stop-color:#00A5F7"/>
		<stop  offset="0.9" style="stop-color:#00D3AE"/>
	</linearGradient>
	<path style="fill:url(#SVGID_00000063611033939616170330000007659400891089555603_);" d="M4.6,20c-1.1,0-2.2-0.4-3-1.3
		c-0.8-0.8-1.3-1.9-1.3-3s0.4-2.2,1.3-3c0.2-0.2,0.4-0.3,0.6-0.5c0.1,0,0.1-0.1,0.2-0.1c0.1-0.1,0.3-0.2,0.5-0.2
		c0.1,0,0.2-0.1,0.3-0.1c0.2-0.1,0.3-0.1,0.5-0.1l0.1,0c0,0,0,0,0.1,0l1-0.1c0.1,0,0.3,0,0.4,0h0c0.1,0,0.1,0,0.1,0c0,0,0,0,0,0l0,0
		h0c0.1,0,0.1,0,0.2,0c1.6,0,3.3-0.7,4.4-1.9c1.2-1.2,1.8-2.8,1.8-4.5v0l0,0c0-0.1,0-0.1,0-0.2c0,0,0-0.1,0-0.1l0-0.1
		c0-0.1,0-0.2,0-0.2l0.1-0.9l0,0v0c0,0,0-0.1,0-0.1C11.9,3.1,12,2.9,12,2.8c0-0.1,0.1-0.2,0.1-0.2c0.1-0.2,0.2-0.3,0.2-0.5l0,0
		c0-0.1,0.1-0.1,0.1-0.2c0.2-0.2,0.3-0.4,0.5-0.6C13.8,0.4,14.9,0,16,0s2.2,0.4,3,1.3c1.7,1.7,1.7,4.4,0,6.1
		c-0.2,0.2-0.4,0.3-0.6,0.5c-0.1,0-0.1,0.1-0.2,0.1l0,0c-0.2,0.1-0.3,0.2-0.5,0.2c-0.1,0-0.2,0.1-0.2,0.1c-0.2,0.1-0.3,0.1-0.5,0.2
		c0,0-0.1,0-0.1,0c0,0,0,0-0.1,0l-0.9,0.1c-0.1,0-0.2,0-0.4,0l-0.1,0c0,0-0.1,0-0.1,0c0,0,0,0,0,0h0l0,0c-0.1,0-0.1,0-0.2,0
		c-1.6,0-3.3,0.7-4.4,1.9c-1.2,1.2-1.8,2.9-1.8,4.5v0l0,0c0,0,0,0.1,0,0.1c0,0.1,0,0.1,0,0.1c0,0,0,0.1,0,0.1c0,0.1,0,0.1,0,0.2
		l-0.1,0.9c0,0,0,0,0,0.1l0,0.1c0,0.2-0.1,0.4-0.2,0.5c0,0.1-0.1,0.2-0.1,0.3c-0.1,0.2-0.1,0.3-0.2,0.5c0,0.1-0.1,0.1-0.1,0.2
		c-0.2,0.3-0.3,0.4-0.5,0.6C6.8,19.6,5.7,20,4.6,20L4.6,20L4.6,20z"/>
</g>
</svg>
